<svg id="Calque_1" data-name="Calque 1" xmlns="http://www.w3.org/2000/svg" viewBox="0 0 2421.38 2421.38"><defs><style>.cls-1,.cls-2{fill:#fff;}.cls-2{font-size:219.48px;font-family:Orbitron-Bold, Orbitron;font-weight:700;}.cls-3{letter-spacing:-0.01em;}.cls-4{letter-spacing:0em;}.cls-5{letter-spacing:-0.01em;}.cls-6{letter-spacing:-0.01em;}</style></defs><path class="cls-1" d="M1695.22,1070.9l-18.67-12.2a580.05,580.05,0,0,1,86.12-103.24L1778,971.62A558.32,558.32,0,0,0,1695.22,1070.9Z"/><polygon class="cls-1" points="1932.22 1742.1 1241.54 1742.1 1241.54 1498.67 1263.83 1498.67 1263.83 1719.8 1909.92 1719.8 1909.92 1507.02 1932.22 1507.02 1932.22 1742.1"/><path class="cls-1" d="M1801,1826.36c-101.92-81.08-174.13-195.22-203.34-321.38l21.73-5c28.07,121.27,97.5,231,195.49,309Z"/><polygon class="cls-1" points="2064.9 1475.16 2064.9 1529.79 347.82 1529.79 347.82 1291.42 402.5 1291.42 402.5 1475.16 2064.9 1475.16"/><polygon class="cls-1" points="1932.22 1308.13 1909.92 1308.13 1909.92 1073.72 1263.83 1073.72 1263.83 1106.21 1241.54 1106.21 1241.54 1051.42 1932.22 1051.42 1932.22 1308.13"/><rect class="cls-1" x="1241.54" y="1210.21" width="22.3" height="97.92"/><circle class="cls-1" cx="1252.69" cy="1157.07" r="25.05"/><path class="cls-1" d="M1252.69,1112.86a44.22,44.22,0,1,1-44.22,44.21,44.26,44.26,0,0,1,44.22-44.21m0-17.84a62.06,62.06,0,1,0,62,62,62.05,62.05,0,0,0-62-62Z"/><path class="cls-1" d="M1608.82,1309.42l-22.15-2.57a573.55,573.55,0,0,1,48.41-173.07l20.27,9.3A551,551,0,0,0,1608.82,1309.42Z"/><path class="cls-1" d="M2134.52,1412.43l-54-20.71a2.22,2.22,0,0,1-1.23-3l77.94-169a2.23,2.23,0,0,1,2.82-1.15l27,10.35a2.23,2.23,0,0,1,1.35,2.69L2137.46,1411A2.23,2.23,0,0,1,2134.52,1412.43Z"/><path class="cls-1" d="M2083.59,1449l10.37,4a2.23,2.23,0,0,1,1.28,2.88l-1.33,3.48a2.26,2.26,0,0,1-1.48,1.35l-13.33,3.73a2.23,2.23,0,0,1-2.68-3l4.29-11.18A2.23,2.23,0,0,1,2083.59,1449Z"/><path class="cls-1" d="M2133,1423.27l-2.65,6.89a2.25,2.25,0,0,1-2.77,1.31,23.43,23.43,0,0,0-28.4,14.22l-.1.25-14.53-5.57.11-.3a23.5,23.5,0,0,0-11.58-29.51,2.26,2.26,0,0,1-1.18-2.83l2.64-6.89a2.23,2.23,0,0,1,2.88-1.28l54.3,20.83A2.24,2.24,0,0,1,2133,1423.27Z"/><polygon class="cls-1" points="1657.62 1107.99 1600.67 1151.74 1667.03 1179.18 1657.62 1107.99"/><path class="cls-1" d="M326.59,1291.42v238.37H281.86c17.71-30,28.77-72.34,28.77-119.21s-11.06-89.15-28.77-119.16Z"/><text class="cls-2" transform="translate(416.75 1456.41)">e C<tspan class="cls-3" x="399.88" y="0">o</tspan><tspan class="cls-4" x="548.46" y="0">rr</tspan><tspan class="cls-5" x="780.23" y="0">e</tspan><tspan class="cls-6" x="929.25" y="0">c</tspan><tspan x="1078.5" y="0">teur</tspan></text><path class="cls-1" d="M1564.43,972.33a311,311,0,0,1-215,296.44l-6.91-21.18a288.82,288.82,0,0,0,199.61-275.26c0-159.61-129.82-289.43-289.43-289.43S963.22,812.72,963.22,972.33c0,155.87,123.85,283.33,278.33,289.21v22.3c-166.79-5.88-300.63-143.38-300.63-311.51,0-171.92,139.86-311.73,311.78-311.73S1564.43,800.41,1564.43,972.33Z"/></svg>