<svg id="Calque_1" data-name="Calque 1" xmlns="http://www.w3.org/2000/svg" viewBox="0 0 2421.38 2421.38"><defs><style>.cls-1{fill:#333;}.cls-2{fill:#fff;}.cls-3{fill:#3198cc;}.cls-4{fill:#cccbcb;}.cls-5,.cls-6{fill:#ffcb00;}.cls-6{font-size:219.48px;font-family:Orbitron-Bold, Orbitron;font-weight:700;}.cls-7{letter-spacing:-0.01em;}.cls-8{letter-spacing:-0.01em;}</style></defs><rect class="cls-1" width="2421.38" height="2421.38"/><path class="cls-2" d="M1688.24,1026.2,1669.57,1014a581.19,581.19,0,0,1,86.12-103.24l15.36,16.17A557.61,557.61,0,0,0,1688.24,1026.2Z"/><polygon class="cls-3" points="1925.24 1697.4 1234.56 1697.4 1234.56 1453.97 1256.86 1453.97 1256.86 1675.1 1902.95 1675.1 1902.95 1462.32 1925.24 1462.32 1925.24 1697.4"/><path class="cls-2" d="M1794,1781.66c-101.92-81.09-174.13-195.22-203.33-321.38l21.72-5c28.07,121.27,97.5,231,195.5,309Z"/><polygon class="cls-3" points="2057.93 1430.45 2057.93 1485.09 340.85 1485.09 340.85 1246.71 395.52 1246.71 395.52 1430.45 2057.93 1430.45"/><polygon class="cls-3" points="1925.24 1263.43 1902.95 1263.43 1902.95 1029.01 1256.86 1029.01 1256.86 1061.51 1234.56 1061.51 1234.56 1006.71 1925.24 1006.71 1925.24 1263.43"/><rect class="cls-3" x="1234.56" y="1165.51" width="22.3" height="97.92"/><circle class="cls-3" cx="1245.71" cy="1112.37" r="25.05"/><path class="cls-3" d="M1245.71,1068.15a44.22,44.22,0,1,1-44.22,44.22,44.27,44.27,0,0,1,44.22-44.22m0-17.83a62.06,62.06,0,1,0,62.06,62,62.06,62.06,0,0,0-62.06-62Z"/><path class="cls-2" d="M1601.85,1264.72l-22.15-2.58a573.47,573.47,0,0,1,48.4-173.06l20.27,9.29A551.1,551.1,0,0,0,1601.85,1264.72Z"/><path class="cls-4" d="M2127.54,1367.73l-54-20.71a2.23,2.23,0,0,1-1.23-3l77.94-169a2.24,2.24,0,0,1,2.83-1.14l27,10.35a2.22,2.22,0,0,1,1.35,2.69l-50.95,179.35A2.23,2.23,0,0,1,2127.54,1367.73Z"/><path class="cls-3" d="M2076.61,1404.33l10.37,4a2.23,2.23,0,0,1,1.29,2.88l-1.34,3.48a2.22,2.22,0,0,1-1.48,1.35l-13.32,3.72a2.23,2.23,0,0,1-2.69-2.94l4.29-11.19A2.23,2.23,0,0,1,2076.61,1404.33Z"/><path class="cls-4" d="M2126,1378.57l-2.64,6.89a2.27,2.27,0,0,1-2.78,1.31,23.44,23.44,0,0,0-28.4,14.22l-.1.25-14.53-5.58.11-.29a23.5,23.5,0,0,0-11.57-29.51,2.26,2.26,0,0,1-1.19-2.83l2.64-6.89a2.23,2.23,0,0,1,2.88-1.28l54.3,20.83A2.23,2.23,0,0,1,2126,1378.57Z"/><polygon class="cls-2" points="1650.64 1063.29 1593.7 1107.04 1660.06 1134.48 1650.64 1063.29"/><path class="cls-5" d="M319.62,1246.71v238.38H274.89c17.7-30,28.76-72.34,28.76-119.21s-11.06-89.15-28.76-119.17Z"/><text class="cls-6" transform="translate(409.77 1411.7)">e C<tspan class="cls-7" x="399.88" y="0">o</tspan><tspan x="548.46" y="0">rr</tspan><tspan class="cls-8" x="780.23" y="0">e</tspan><tspan class="cls-7" x="929.25" y="0">c</tspan><tspan x="1078.5" y="0">teur</tspan></text><path class="cls-2" d="M1557.46,927.63a311,311,0,0,1-215,296.44l-6.91-21.19a288.81,288.81,0,0,0,199.62-275.25c0-159.61-129.82-289.44-289.44-289.44S956.24,768,956.24,927.63c0,155.87,123.85,283.32,278.33,289.21v22.3c-166.79-5.89-300.63-143.38-300.63-311.51,0-171.92,139.86-311.74,311.78-311.74S1557.46,755.71,1557.46,927.63Z"/></svg>