<svg id="Calque_1" data-name="Calque 1" xmlns="http://www.w3.org/2000/svg" viewBox="0 0 2421.38 2421.38"><defs><style>.cls-1{fill:#fff;}.cls-2{fill:#3198cc;}.cls-3{fill:#cccbcb;}.cls-4,.cls-5{fill:#ffcb00;}.cls-5{font-size:219.48px;font-family:Orbitron-Bold, Orbitron;font-weight:700;}.cls-6{letter-spacing:-0.01em;}.cls-7{letter-spacing:0em;}.cls-8{letter-spacing:-0.01em;}.cls-9{letter-spacing:-0.01em;}</style></defs><path class="cls-1" d="M1695.22,1026.2,1676.55,1014a580.76,580.76,0,0,1,86.12-103.24L1778,926.92A557.61,557.61,0,0,0,1695.22,1026.2Z"/><polygon class="cls-2" points="1932.22 1697.4 1241.54 1697.4 1241.54 1453.97 1263.83 1453.97 1263.83 1675.1 1909.92 1675.1 1909.92 1462.32 1932.22 1462.32 1932.22 1697.4"/><path class="cls-1" d="M1801,1781.66c-101.92-81.09-174.13-195.22-203.34-321.38l21.73-5c28.07,121.27,97.5,231,195.49,309Z"/><polygon class="cls-2" points="2064.9 1430.45 2064.9 1485.09 347.82 1485.09 347.82 1246.71 402.5 1246.71 402.5 1430.45 2064.9 1430.45"/><polygon class="cls-2" points="1932.22 1263.43 1909.92 1263.43 1909.92 1029.01 1263.83 1029.01 1263.83 1061.51 1241.54 1061.51 1241.54 1006.71 1932.22 1006.71 1932.22 1263.43"/><rect class="cls-2" x="1241.54" y="1165.51" width="22.3" height="97.92"/><circle class="cls-2" cx="1252.69" cy="1112.37" r="25.05"/><path class="cls-2" d="M1252.69,1068.15a44.22,44.22,0,1,1-44.22,44.22,44.27,44.27,0,0,1,44.22-44.22m0-17.83a62.06,62.06,0,1,0,62,62,62.05,62.05,0,0,0-62-62Z"/><path class="cls-1" d="M1608.82,1264.72l-22.15-2.58a573.49,573.49,0,0,1,48.41-173.06l20.27,9.29A551.12,551.12,0,0,0,1608.82,1264.72Z"/><path class="cls-3" d="M2134.52,1367.73l-54-20.71a2.22,2.22,0,0,1-1.23-3l77.94-169a2.23,2.23,0,0,1,2.82-1.14l27,10.35a2.23,2.23,0,0,1,1.35,2.69l-50.95,179.35A2.23,2.23,0,0,1,2134.52,1367.73Z"/><path class="cls-2" d="M2083.59,1404.33l10.37,4a2.23,2.23,0,0,1,1.28,2.88l-1.33,3.48a2.26,2.26,0,0,1-1.48,1.35l-13.33,3.72a2.22,2.22,0,0,1-2.68-2.94l4.29-11.19A2.23,2.23,0,0,1,2083.59,1404.33Z"/><path class="cls-3" d="M2133,1378.57l-2.65,6.89a2.26,2.26,0,0,1-2.77,1.31,23.43,23.43,0,0,0-28.4,14.22l-.1.25-14.53-5.58.11-.29a23.5,23.5,0,0,0-11.58-29.51,2.26,2.26,0,0,1-1.18-2.83l2.64-6.89a2.23,2.23,0,0,1,2.88-1.28l54.3,20.83A2.24,2.24,0,0,1,2133,1378.57Z"/><polygon class="cls-1" points="1657.62 1063.29 1600.67 1107.04 1667.03 1134.48 1657.62 1063.29"/><path class="cls-4" d="M326.59,1246.71v238.38H281.86c17.71-30,28.77-72.34,28.77-119.21s-11.06-89.15-28.77-119.17Z"/><text class="cls-5" transform="translate(416.75 1411.7)">e C<tspan class="cls-6" x="399.88" y="0">o</tspan><tspan class="cls-7" x="548.46" y="0">rr</tspan><tspan class="cls-8" x="780.23" y="0">e</tspan><tspan class="cls-9" x="929.25" y="0">c</tspan><tspan x="1078.5" y="0">teur</tspan></text><path class="cls-1" d="M1564.43,927.63a311,311,0,0,1-215,296.44l-6.91-21.19a288.81,288.81,0,0,0,199.61-275.25c0-159.61-129.82-289.44-289.43-289.44S963.22,768,963.22,927.63c0,155.87,123.85,283.32,278.33,289.21v22.3c-166.79-5.89-300.63-143.38-300.63-311.51,0-171.92,139.86-311.74,311.78-311.74S1564.43,755.71,1564.43,927.63Z"/></svg>