<svg id="Calque_1" data-name="Calque 1" xmlns="http://www.w3.org/2000/svg" viewBox="0 0 2421.38 2421.38"><defs><style>.cls-1{font-size:219.48px;font-family:Orbitron-Bold, Orbitron;font-weight:700;}.cls-2{letter-spacing:-0.01em;}.cls-3{letter-spacing:-0.01em;}.cls-4{letter-spacing:0em;}</style></defs><path d="M1657.33,1029.68l-18.67-12.2a581.19,581.19,0,0,1,86.12-103.24l15.36,16.17A557.9,557.9,0,0,0,1657.33,1029.68Z"/><polygon points="1894.33 1700.89 1203.65 1700.89 1203.65 1457.45 1225.95 1457.45 1225.95 1678.59 1872.04 1678.59 1872.04 1465.8 1894.33 1465.8 1894.33 1700.89"/><path d="M1763.09,1785.15c-101.92-81.09-174.13-195.22-203.34-321.38l21.73-5c28.07,121.27,97.5,231,195.49,309Z"/><polygon points="2027.01 1433.94 2027.01 1488.57 309.93 1488.57 309.93 1250.2 364.61 1250.2 364.61 1433.94 2027.01 1433.94"/><polygon points="1894.33 1266.92 1872.04 1266.92 1872.04 1032.5 1225.95 1032.5 1225.95 1065 1203.65 1065 1203.65 1010.2 1894.33 1010.2 1894.33 1266.92"/><rect x="1203.65" y="1169" width="22.3" height="97.92"/><circle cx="1214.8" cy="1115.86" r="25.05"/><path d="M1214.8,1071.64a44.22,44.22,0,1,1-44.22,44.22,44.27,44.27,0,0,1,44.22-44.22m0-17.84a62.06,62.06,0,1,0,62,62.06,62.07,62.07,0,0,0-62-62.06Z"/><path d="M1570.93,1268.21l-22.15-2.58a573.78,573.78,0,0,1,48.41-173.06l20.27,9.29A551.12,551.12,0,0,0,1570.93,1268.21Z"/><path d="M2096.63,1371.22l-54-20.71a2.24,2.24,0,0,1-1.23-3l77.94-169a2.24,2.24,0,0,1,2.83-1.15l27,10.36a2.23,2.23,0,0,1,1.35,2.69l-50.95,179.34A2.23,2.23,0,0,1,2096.63,1371.22Z"/><path d="M2045.7,1407.82l10.37,4a2.22,2.22,0,0,1,1.28,2.88l-1.33,3.48a2.22,2.22,0,0,1-1.48,1.35l-13.33,3.72a2.23,2.23,0,0,1-2.68-3l4.29-11.18A2.23,2.23,0,0,1,2045.7,1407.82Z"/><path d="M2095.09,1382.06l-2.64,6.89a2.25,2.25,0,0,1-2.78,1.3,23.42,23.42,0,0,0-28.4,14.23l-.1.25-14.53-5.58.11-.29a23.49,23.49,0,0,0-11.58-29.51,2.26,2.26,0,0,1-1.18-2.83l2.64-6.89a2.22,2.22,0,0,1,2.88-1.28l54.3,20.83A2.23,2.23,0,0,1,2095.09,1382.06Z"/><polygon points="1619.73 1066.78 1562.79 1110.52 1629.14 1137.96 1619.73 1066.78"/><path d="M288.71,1250.2v238.37H244c17.71-30,28.77-72.33,28.77-119.2S261.68,1280.22,244,1250.2Z"/><text class="cls-1" transform="translate(378.87 1415.2)">e C<tspan class="cls-2" x="399.88" y="0">o</tspan><tspan x="548.46" y="0">rr</tspan><tspan class="cls-3" x="780.23" y="0">e</tspan><tspan class="cls-2" x="929.25" y="0">c</tspan><tspan class="cls-4" x="1078.5" y="0">teur</tspan></text><path d="M1526.55,931.12a311,311,0,0,1-215,296.43l-6.91-21.18a288.81,288.81,0,0,0,199.62-275.25c0-159.62-129.83-289.44-289.44-289.44S925.33,771.5,925.33,931.12c0,155.86,123.85,283.32,278.33,289.21v22.3C1036.87,1236.74,903,1099.25,903,931.12c0-171.93,139.86-311.74,311.78-311.74S1526.55,759.19,1526.55,931.12Z"/></svg>